solid bbStock8TGearBVL
facet normal 0.382683432365098 0.923879532511283 0.0
outer loop
vertex 5.76148538650451 8.01148538650459 6.0
vertex 6.55698051533936 7.68198051533946 2.0
vertex 5.76148538650451 8.01148538650459 2.0
endloop
endfacet
facet normal 0.382683432365098 0.923879532511283 0.0
outer loop
vertex 6.55698051533936 7.68198051533946 2.0
vertex 5.76148538650451 8.01148538650459 6.0
vertex 6.55698051533936 7.68198051533946 6.0
endloop
endfacet
facet normal -0.382683432365084 0.923879532511289 -4.26616417853484e-17
outer loop
vertex 2.22595148057181 6.11503877709784 8.0
vertex 2.71208739263758 6.31640286503209 1.33287478276678e-15
vertex 2.22595148057181 6.11503877709784 1.32185928869433e-15
endloop
endfacet
facet normal -0.382683432365084 0.923879532511289 -4.26616417853484e-17
outer loop
vertex 2.71208739263758 6.31640286503209 1.33287478276678e-15
vertex 2.22595148057181 6.11503877709784 8.0
vertex 2.71208739263758 6.31640286503209 8.0
endloop
endfacet
facet normal 0.962452273718864 -0.271450954710772 -2.5884724979439e-18
outer loop
vertex 6.55698051533936 7.68198051533946 2.0
vertex 6.1150387770978 6.11503877709782 8.0
vertex 6.1150387770978 6.11503877709782 1.32185928869433e-15
endloop
endfacet
facet normal 0.962452273718864 -0.271450954710772 -2.5884724979439e-18
outer loop
vertex 6.1150387770978 6.11503877709782 8.0
vertex 6.55698051533936 7.68198051533946 2.0
vertex 6.55698051533936 7.68198051533946 6.0
endloop
endfacet
facet normal -0.923879532511291 -0.382683432365081 -2.12047117452662e-17
outer loop
vertex 2.02458739263755 2.71208739263759 8.0
vertex 2.22595148057181 2.22595148057182 1.23373533611471e-15
vertex 2.22595148057181 2.22595148057182 8.0
endloop
endfacet
facet normal -0.923879532511291 -0.382683432365081 -2.12047117452662e-17
outer loop
vertex 2.22595148057181 2.22595148057182 1.23373533611471e-15
vertex 2.02458739263755 2.71208739263759 8.0
vertex 2.02458739263755 2.71208739263759 1.23373533611471e-15
endloop
endfacet
facet normal 0.923879532511289 -0.382683432365085 -0.0
outer loop
vertex 6.9204951288349 4.17049512883482 1.40998324127395e-15
vertex 6.71913104090065 3.68435921676905 8.0
vertex 6.71913104090065 3.68435921676905 1.23373533611471e-15
endloop
endfacet
facet normal 0.923879532511289 -0.382683432365085 -0.0
outer loop
vertex 6.71913104090065 3.68435921676905 8.0
vertex 6.9204951288349 4.17049512883482 1.40998324127395e-15
vertex 6.9204951288349 4.17049512883482 8.0
endloop
endfacet
facet normal -0.258819045102534 0.965925826289065 0.0
outer loop
vertex 4.79424902753187 1.84261388747816 8.0
vertex 5.17049512883476 1.99846012542783 0.0
vertex 4.79424902753187 1.84261388747816 0.0
endloop
endfacet
facet normal -0.38268343236511 0.923879532511279 0.0
outer loop
vertex 5.17049512883476 1.99846012542783 0.0
vertex 4.79424902753187 1.84261388747816 8.0
vertex 5.17049512883476 1.99846012542783 8.0
endloop
endfacet
facet normal -0.923879532511287 -0.382683432365089 0.0
outer loop
vertex 0.0 3.37499999999997 6.0
vertex 0.329504871165074 2.57950487116512 2.0
vertex 0.329504871165074 2.57950487116512 6.0
endloop
endfacet
facet normal -0.923879532511287 -0.382683432365089 0.0
outer loop
vertex 0.329504871165074 2.57950487116512 2.0
vertex 0.0 3.37499999999997 6.0
vertex 0.0 3.37499999999997 2.0
endloop
endfacet
facet normal 0.488611718479467 -0.872501340150571 -2.44043527494833e-18
outer loop
vertex 8.34099025766961 4.96599025766965 2.0
vertex 6.9204951288349 4.17049512883482 8.0
vertex 6.9204951288349 4.17049512883482 1.40998324127395e-15
endloop
endfacet
facet normal 0.488611718479467 -0.872501340150571 -2.44043527494833e-18
outer loop
vertex 6.9204951288349 4.17049512883482 8.0
vertex 8.34099025766961 4.96599025766965 2.0
vertex 8.34099025766961 4.96599025766965 6.0
endloop
endfacet
facet normal 0.0 1.0 0.0
outer loop
vertex 4.17049512883481 1.76049512883482 8.0
vertex 4.79424902753187 1.84261388747816 0.0
vertex 4.17049512883481 1.76049512883482 0.0
endloop
endfacet
facet normal -0.258819045102534 0.965925826289065 0.0
outer loop
vertex 4.79424902753187 1.84261388747816 0.0
vertex 4.17049512883481 1.76049512883482 8.0
vertex 4.79424902753187 1.84261388747816 8.0
endloop
endfacet
facet normal -0.923879532511269 -0.382683432365132 -0.0
outer loop
vertex 6.34253013224178 5.17049512883483 8.0
vertex 6.49837637019148 4.79424902753191 0.0
vertex 6.49837637019148 4.79424902753191 8.0
endloop
endfacet
facet normal -0.965925826289063 -0.25881904510254 0.0
outer loop
vertex 6.49837637019148 4.79424902753191 0.0
vertex 6.34253013224178 5.17049512883483 8.0
vertex 6.34253013224178 5.17049512883483 0.0
endloop
endfacet
facet normal -0.0779778085202404 0.996955094965857 8.64080026561421e-19
outer loop
vertex 6.31640286503206 5.62890286503204 8.0
vertex 8.01148538650454 5.7614853865045 2.0
vertex 6.31640286503206 5.62890286503204 1.40998324127395e-15
endloop
endfacet
facet normal -0.0779778085202404 0.996955094965857 8.64080026561421e-19
outer loop
vertex 8.01148538650454 5.7614853865045 2.0
vertex 6.31640286503206 5.62890286503204 8.0
vertex 8.01148538650454 5.7614853865045 6.0
endloop
endfacet
facet normal -1.0 0.0 0.0
outer loop
vertex 5.17049512883476 6.34253013224185 8.0
vertex 5.17049512883476 5.17049512883483 0.0
vertex 5.17049512883476 5.17049512883483 8.0
endloop
endfacet
facet normal -1.0 0.0 0.0
outer loop
vertex 5.17049512883476 5.17049512883483 0.0
vertex 5.17049512883476 6.34253013224185 8.0
vertex 5.17049512883476 6.34253013224185 0.0
endloop
endfacet
facet normal -0.96245227371886 0.271450954710784 -3.62494647267807e-17
outer loop
vertex 2.22595148057181 2.22595148057182 8.0
vertex 1.78400974233025 0.659009742330249 2.0
vertex 1.78400974233025 0.659009742330249 6.0
endloop
endfacet
facet normal -0.96245227371886 0.271450954710784 -3.62494647267807e-17
outer loop
vertex 1.78400974233025 0.659009742330249 2.0
vertex 2.22595148057181 2.22595148057182 8.0
vertex 2.22595148057181 2.22595148057182 1.23373533611471e-15
endloop
endfacet
facet normal -0.649815071002094 -0.760092345375576 -5.24914718728502e-17
outer loop
vertex 1.62185921676905 4.65663104090063 8.0
vertex 0.329504871165074 5.76148538650459 2.0
vertex 1.62185921676905 4.65663104090063 1.32185928869433e-15
endloop
endfacet
facet normal -0.649815071002094 -0.760092345375576 -5.24914718728502e-17
outer loop
vertex 0.329504871165074 5.76148538650459 2.0
vertex 1.62185921676905 4.65663104090063 8.0
vertex 0.329504871165074 5.76148538650459 6.0
endloop
endfacet
facet normal -0.872501340150603 -0.488611718479409 1.46502835854004e-18
outer loop
vertex 4.17049512883481 1.42049512883481 8.0
vertex 4.96599025766957 0.0 2.0
vertex 4.96599025766957 0.0 6.0
endloop
endfacet
facet normal -0.872501340150603 -0.488611718479409 1.46502835854004e-18
outer loop
vertex 4.96599025766957 0.0 2.0
vertex 4.17049512883481 1.42049512883481 8.0
vertex 4.17049512883481 1.42049512883481 1.23373533611471e-15
endloop
endfacet
facet normal -0.760092345375578 0.649815071002091 -8.8293356940999e-18
outer loop
vertex 5.76148538650451 8.01148538650459 6.0
vertex 4.65663104090058 6.71913104090064 1.32185928869433e-15
vertex 4.65663104090058 6.71913104090064 8.0
endloop
endfacet
facet normal -0.760092345375578 0.649815071002091 -8.8293356940999e-18
outer loop
vertex 4.65663104090058 6.71913104090064 1.32185928869433e-15
vertex 5.76148538650451 8.01148538650459 6.0
vertex 5.76148538650451 8.01148538650459 2.0
endloop
endfacet
facet normal 0.382683432365055 0.923879532511301 0.0
outer loop
vertex 3.17049512883476 1.99846012542784 8.0
vertex 3.54674123013774 1.84261388747816 0.0
vertex 3.17049512883476 1.99846012542784 0.0
endloop
endfacet
facet normal 0.258819045102505 0.965925826289073 0.0
outer loop
vertex 3.54674123013774 1.84261388747816 0.0
vertex 3.17049512883476 1.99846012542784 8.0
vertex 3.54674123013774 1.84261388747816 8.0
endloop
endfacet
facet normal -0.488611718479472 0.872501340150568 -2.44043527494783e-18
outer loop
vertex 0.0 3.37499999999997 2.0
vertex 1.4204951288348 4.17049512883486 8.0
vertex 1.4204951288348 4.17049512883486 1.23373533611471e-15
endloop
endfacet
facet normal -0.488611718479472 0.872501340150568 -2.44043527494783e-18
outer loop
vertex 1.4204951288348 4.17049512883486 8.0
vertex 0.0 3.37499999999997 2.0
vertex 0.0 3.37499999999997 6.0
endloop
endfacet
facet normal 0.0 -1.0 0.0
outer loop
vertex 4.17049512883481 6.58049512883484 8.0
vertex 3.54674123013774 6.49837637019149 0.0
vertex 4.17049512883481 6.58049512883484 0.0
endloop
endfacet
facet normal 0.25881904510253 -0.965925826289066 0.0
outer loop
vertex 3.54674123013774 6.49837637019149 0.0
vertex 4.17049512883481 6.58049512883484 8.0
vertex 3.54674123013774 6.49837637019149 8.0
endloop
endfacet
facet normal 0.760092345375578 -0.649815071002091 -8.8293356940999e-18
outer loop
vertex 3.68435921676903 1.62185921676907 1.23373533611471e-15
vertex 2.5795048711651 0.329504871165124 6.0
vertex 2.5795048711651 0.329504871165124 2.0
endloop
endfacet
facet normal 0.760092345375578 -0.649815071002091 -8.8293356940999e-18
outer loop
vertex 2.5795048711651 0.329504871165124 6.0
vertex 3.68435921676903 1.62185921676907 1.23373533611471e-15
vertex 3.68435921676903 1.62185921676907 8.0
endloop
endfacet
facet normal -0.382683432365099 -0.923879532511283 -1.4352118714052e-19
outer loop
vertex 4.17049512883481 1.42049512883481 8.0
vertex 3.68435921676903 1.62185921676907 1.23373533611471e-15
vertex 4.17049512883481 1.42049512883481 1.23373533611471e-15
endloop
endfacet
facet normal -0.382683432365099 -0.923879532511283 -1.4352118714052e-19
outer loop
vertex 3.68435921676903 1.62185921676907 1.23373533611471e-15
vertex 4.17049512883481 1.42049512883481 8.0
vertex 3.68435921676903 1.62185921676907 8.0
endloop
endfacet
facet normal -0.258819045102503 -0.965925826289073 0.0
outer loop
vertex 4.79424902753187 6.49837637019149 8.0
vertex 4.17049512883481 6.58049512883484 0.0
vertex 4.79424902753187 6.49837637019149 0.0
endloop
endfacet
facet normal 0.0 -1.0 0.0
outer loop
vertex 4.17049512883481 6.58049512883484 0.0
vertex 4.79424902753187 6.49837637019149 8.0
vertex 4.17049512883481 6.58049512883484 8.0
endloop
endfacet
facet normal 0.923879532511269 -0.382683432365132 0.0
outer loop
vertex 1.99846012542783 5.17049512883483 0.0
vertex 1.84261388747814 4.79424902753191 8.0
vertex 1.84261388747814 4.79424902753191 0.0
endloop
endfacet
facet normal 0.965925826289063 -0.25881904510254 0.0
outer loop
vertex 1.84261388747814 4.79424902753191 8.0
vertex 1.99846012542783 5.17049512883483 0.0
vertex 1.99846012542783 5.17049512883483 8.0
endloop
endfacet
facet normal 1.0 0.0 0.0
outer loop
vertex 3.17049512883476 3.17049512883482 0.0
vertex 3.17049512883476 1.99846012542784 8.0
vertex 3.17049512883476 1.99846012542784 0.0
endloop
endfacet
facet normal 1.0 0.0 0.0
outer loop
vertex 3.17049512883476 1.99846012542784 8.0
vertex 3.17049512883476 3.17049512883482 0.0
vertex 3.17049512883476 3.17049512883482 8.0
endloop
endfacet
facet normal -0.965925826289064 0.258819045102537 0.0
outer loop
vertex 6.49837637019148 3.54674123013775 8.0
vertex 6.34253013224178 3.17049512883482 0.0
vertex 6.34253013224178 3.17049512883482 8.0
endloop
endfacet
facet normal -0.923879532511271 0.382683432365127 0.0
outer loop
vertex 6.34253013224178 3.17049512883482 0.0
vertex 6.49837637019148 3.54674123013775 8.0
vertex 6.49837637019148 3.54674123013775 0.0
endloop
endfacet
facet normal 0.923879532511289 0.382683432365084 0.0
outer loop
vertex 8.01148538650454 5.7614853865045 2.0
vertex 8.34099025766961 4.96599025766965 6.0
vertex 8.34099025766961 4.96599025766965 2.0
endloop
endfacet
facet normal 0.923879532511289 0.382683432365084 0.0
outer loop
vertex 8.34099025766961 4.96599025766965 6.0
vertex 8.01148538650454 5.7614853865045 2.0
vertex 8.01148538650454 5.7614853865045 6.0
endloop
endfacet
facet normal -0.996955094965856 -0.0779778085202516 5.96906372781037e-17
outer loop
vertex 2.5795048711651 8.01148538650454 6.0
vertex 2.71208739263758 6.31640286503209 1.33287478276678e-15
vertex 2.71208739263758 6.31640286503209 8.0
endloop
endfacet
facet normal -0.996955094965856 -0.0779778085202516 5.96906372781037e-17
outer loop
vertex 2.71208739263758 6.31640286503209 1.33287478276678e-15
vertex 2.5795048711651 8.01148538650454 6.0
vertex 2.5795048711651 8.01148538650454 2.0
endloop
endfacet
facet normal 0.297603012214442 -0.71847722829113 -0.628667574754723
outer loop
vertex 5.76148538650442 0.329504871165124 2.0
vertex 4.17049512883481 1.42049512883481 1.23373533611471e-15
vertex 5.62890286503194 2.02458739263758 1.23373533611471e-15
endloop
endfacet
facet normal 0.297603012214442 -0.71847722829113 -0.628667574754723
outer loop
vertex 4.17049512883481 1.42049512883481 1.23373533611471e-15
vertex 5.76148538650442 0.329504871165124 2.0
vertex 4.96599025766957 0.0 2.0
endloop
endfacet
facet normal 0.258819045102505 0.965925826289073 0.0
outer loop
vertex 3.54674123013774 1.84261388747816 8.0
vertex 4.17049512883481 1.76049512883482 0.0
vertex 3.54674123013774 1.84261388747816 0.0
endloop
endfacet
facet normal 0.0 1.0 0.0
outer loop
vertex 4.17049512883481 1.76049512883482 0.0
vertex 3.54674123013774 1.84261388747816 8.0
vertex 4.17049512883481 1.76049512883482 8.0
endloop
endfacet
facet normal 0.0 1.0 0.0
outer loop
vertex 1.99846012542783 3.17049512883482 8.0
vertex 3.17049512883476 3.17049512883482 0.0
vertex 1.99846012542783 3.17049512883482 0.0
endloop
endfacet
facet normal 0.0 1.0 0.0
outer loop
vertex 3.17049512883476 3.17049512883482 0.0
vertex 1.99846012542783 3.17049512883482 8.0
vertex 3.17049512883476 3.17049512883482 8.0
endloop
endfacet
facet normal 0.965925826289063 -0.25881904510254 0.0
outer loop
vertex 1.84261388747814 4.79424902753191 0.0
vertex 1.76049512883479 4.17049512883483 8.0
vertex 1.76049512883479 4.17049512883483 0.0
endloop
endfacet
facet normal 1.0 0.0 0.0
outer loop
vertex 1.76049512883479 4.17049512883483 8.0
vertex 1.84261388747814 4.79424902753191 0.0
vertex 1.84261388747814 4.79424902753191 8.0
endloop
endfacet
facet normal 0.923879532511285 -0.382683432365094 0.0
outer loop
vertex 8.01148538650463 2.57950487116508 2.0
vertex 7.68198051533946 1.78400974233023 6.0
vertex 7.68198051533946 1.78400974233023 2.0
endloop
endfacet
facet normal 0.923879532511285 -0.382683432365094 0.0
outer loop
vertex 7.68198051533946 1.78400974233023 6.0
vertex 8.01148538650463 2.57950487116508 2.0
vertex 8.01148538650463 2.57950487116508 6.0
endloop
endfacet
facet normal 0.0 1.0 0.0
outer loop
vertex 5.17049512883476 3.17049512883482 8.0
vertex 6.34253013224178 3.17049512883482 0.0
vertex 5.17049512883476 3.17049512883482 0.0
endloop
endfacet
facet normal 0.0 1.0 0.0
outer loop
vertex 6.34253013224178 3.17049512883482 0.0
vertex 5.17049512883476 3.17049512883482 8.0
vertex 6.34253013224178 3.17049512883482 8.0
endloop
endfacet
facet normal -0.382683432365092 0.923879532511286 0.0
outer loop
vertex 2.5795048711651 8.01148538650454 6.0
vertex 3.37499999999995 8.34099025766967 2.0
vertex 2.5795048711651 8.01148538650454 2.0
endloop
endfacet
facet normal -0.382683432365092 0.923879532511286 0.0
outer loop
vertex 3.37499999999995 8.34099025766967 2.0
vertex 2.5795048711651 8.01148538650454 6.0
vertex 3.37499999999995 8.34099025766967 6.0
endloop
endfacet
facet normal 0.25881904510253 -0.965925826289066 0.0
outer loop
vertex 3.54674123013774 6.49837637019149 8.0
vertex 3.17049512883476 6.34253013224179 0.0
vertex 3.54674123013774 6.49837637019149 0.0
endloop
endfacet
facet normal 0.382683432365102 -0.923879532511282 0.0
outer loop
vertex 3.17049512883476 6.34253013224179 0.0
vertex 3.54674123013774 6.49837637019149 8.0
vertex 3.17049512883476 6.34253013224179 8.0
endloop
endfacet
facet normal -0.0 -1.0 -0.0
outer loop
vertex 6.34253013224178 5.17049512883483 8.0
vertex 5.17049512883476 5.17049512883483 0.0
vertex 6.34253013224178 5.17049512883483 0.0
endloop
endfacet
facet normal -0.0 -1.0 -0.0
outer loop
vertex 5.17049512883476 5.17049512883483 0.0
vertex 6.34253013224178 5.17049512883483 8.0
vertex 5.17049512883476 5.17049512883483 8.0
endloop
endfacet
facet normal 0.382683432365072 -0.923879532511294 -1.4352118714017e-19
outer loop
vertex 6.11503877709771 2.22595148057182 8.0
vertex 5.62890286503194 2.02458739263758 1.23373533611471e-15
vertex 6.11503877709771 2.22595148057182 1.23373533611471e-15
endloop
endfacet
facet normal 0.382683432365072 -0.923879532511294 -1.4352118714017e-19
outer loop
vertex 5.62890286503194 2.02458739263758 1.23373533611471e-15
vertex 6.11503877709771 2.22595148057182 8.0
vertex 5.62890286503194 2.02458739263758 8.0
endloop
endfacet
facet normal 0.923879532511291 0.382683432365081 -0.0
outer loop
vertex 6.1150387770978 6.11503877709782 1.32185928869433e-15
vertex 6.31640286503206 5.62890286503204 8.0
vertex 6.31640286503206 5.62890286503204 1.40998324127395e-15
endloop
endfacet
facet normal 0.923879532511291 0.382683432365081 -0.0
outer loop
vertex 6.31640286503206 5.62890286503204 8.0
vertex 6.1150387770978 6.11503877709782 1.32185928869433e-15
vertex 6.1150387770978 6.11503877709782 8.0
endloop
endfacet
facet normal -0.923879532511288 0.382683432365087 -1.75834604350982e-16
outer loop
vertex 1.62185921676905 4.65663104090063 8.0
vertex 1.4204951288348 4.17049512883486 1.23373533611471e-15
vertex 1.4204951288348 4.17049512883486 8.0
endloop
endfacet
facet normal -0.923879532511288 0.382683432365087 -1.75834604350982e-16
outer loop
vertex 1.4204951288348 4.17049512883486 1.23373533611471e-15
vertex 1.62185921676905 4.65663104090063 8.0
vertex 1.62185921676905 4.65663104090063 1.32185928869433e-15
endloop
endfacet
facet normal 0.649815071002096 0.760092345375574 5.57809094605031e-18
outer loop
vertex 6.71913104090065 3.68435921676905 8.0
vertex 8.01148538650463 2.57950487116508 2.0
vertex 6.71913104090065 3.68435921676905 1.23373533611471e-15
endloop
endfacet
facet normal 0.649815071002096 0.760092345375574 5.57809094605031e-18
outer loop
vertex 8.01148538650463 2.57950487116508 2.0
vertex 6.71913104090065 3.68435921676905 8.0
vertex 8.01148538650463 2.57950487116508 6.0
endloop
endfacet
facet normal -1.0 0.0 0.0
outer loop
vertex 6.58049512883482 4.17049512883483 8.0
vertex 6.49837637019148 3.54674123013775 0.0
vertex 6.49837637019148 3.54674123013775 8.0
endloop
endfacet
facet normal -0.965925826289064 0.258819045102537 0.0
outer loop
vertex 6.49837637019148 3.54674123013775 0.0
vertex 6.58049512883482 4.17049512883483 8.0
vertex 6.58049512883482 4.17049512883483 0.0
endloop
endfacet
facet normal 0.872501340150582 0.488611718479446 1.17202268683311e-17
outer loop
vertex 4.1704951288348 6.92049512883484 1.33287478276678e-15
vertex 3.37499999999995 8.34099025766967 6.0
vertex 4.17049512883481 6.92049512883484 8.0
endloop
endfacet
facet normal 0.872501340150582 0.488611718479446 1.17202268683311e-17
outer loop
vertex 3.37499999999995 8.34099025766967 6.0
vertex 4.1704951288348 6.92049512883484 1.33287478276678e-15
vertex 3.37499999999995 8.34099025766967 2.0
endloop
endfacet
facet normal -1.0 0.0 0.0
outer loop
vertex 5.17049512883476 3.17049512883482 8.0
vertex 5.17049512883476 1.99846012542783 0.0
vertex 5.17049512883476 1.99846012542783 8.0
endloop
endfacet
facet normal -1.0 0.0 0.0
outer loop
vertex 5.17049512883476 1.99846012542783 0.0
vertex 5.17049512883476 3.17049512883482 8.0
vertex 5.17049512883476 3.17049512883482 0.0
endloop
endfacet
facet normal 1.0 0.0 0.0
outer loop
vertex 3.17049512883476 6.34253013224179 0.0
vertex 3.17049512883476 5.17049512883483 8.0
vertex 3.17049512883476 5.17049512883483 0.0
endloop
endfacet
facet normal 1.0 0.0 0.0
outer loop
vertex 3.17049512883476 5.17049512883483 8.0
vertex 3.17049512883476 6.34253013224179 0.0
vertex 3.17049512883476 6.34253013224179 8.0
endloop
endfacet
facet normal -0.38268343236505 -0.923879532511303 -0.0
outer loop
vertex 5.17049512883476 6.34253013224185 8.0
vertex 4.79424902753187 6.49837637019149 0.0
vertex 5.17049512883476 6.34253013224185 0.0
endloop
endfacet
facet normal -0.258819045102503 -0.965925826289073 0.0
outer loop
vertex 4.79424902753187 6.49837637019149 0.0
vertex 5.17049512883476 6.34253013224185 8.0
vertex 4.79424902753187 6.49837637019149 8.0
endloop
endfacet
facet normal 0.996955094965856 0.0779778085202516 4.33308761276975e-19
outer loop
vertex 5.62890286503194 2.02458739263758 1.23373533611471e-15
vertex 5.76148538650442 0.329504871165124 6.0
vertex 5.76148538650442 0.329504871165124 2.0
endloop
endfacet
facet normal 0.996955094965856 0.0779778085202516 4.33308761276975e-19
outer loop
vertex 5.76148538650442 0.329504871165124 6.0
vertex 5.62890286503194 2.02458739263758 1.23373533611471e-15
vertex 5.62890286503194 2.02458739263758 8.0
endloop
endfacet
facet normal 0.382683432365086 -0.923879532511288 0.0
outer loop
vertex 5.76148538650442 0.329504871165124 6.0
vertex 4.96599025766957 0.0 2.0
vertex 5.76148538650442 0.329504871165124 2.0
endloop
endfacet
facet normal 0.382683432365086 -0.923879532511288 0.0
outer loop
vertex 4.96599025766957 0.0 2.0
vertex 5.76148538650442 0.329504871165124 6.0
vertex 4.96599025766957 0.0 6.0
endloop
endfacet
facet normal 0.077977808520247 -0.996955094965856 8.64080026560864e-19
outer loop
vertex 2.02458739263755 2.71208739263759 8.0
vertex 0.329504871165074 2.57950487116512 2.0
vertex 2.02458739263755 2.71208739263759 1.23373533611471e-15
endloop
endfacet
facet normal 0.077977808520247 -0.996955094965856 8.64080026560864e-19
outer loop
vertex 0.329504871165074 2.57950487116512 2.0
vertex 2.02458739263755 2.71208739263759 8.0
vertex 0.329504871165074 2.57950487116512 6.0
endloop
endfacet
facet normal -0.0 -1.0 -0.0
outer loop
vertex 3.17049512883476 5.17049512883483 8.0
vertex 1.99846012542783 5.17049512883483 0.0
vertex 3.17049512883476 5.17049512883483 0.0
endloop
endfacet
facet normal -0.0 -1.0 -0.0
outer loop
vertex 1.99846012542783 5.17049512883483 0.0
vertex 3.17049512883476 5.17049512883483 8.0
vertex 1.99846012542783 5.17049512883483 8.0
endloop
endfacet
facet normal -0.382683432365092 -0.923879532511286 0.0
outer loop
vertex 2.5795048711651 0.329504871165124 6.0
vertex 1.78400974233025 0.659009742330249 2.0
vertex 2.5795048711651 0.329504871165124 2.0
endloop
endfacet
facet normal -0.382683432365092 -0.923879532511286 0.0
outer loop
vertex 1.78400974233025 0.659009742330249 2.0
vertex 2.5795048711651 0.329504871165124 6.0
vertex 1.78400974233025 0.659009742330249 6.0
endloop
endfacet
facet normal -0.923879532511287 0.382683432365089 0.0
outer loop
vertex 0.659009742330237 6.55698051533944 6.0
vertex 0.329504871165074 5.76148538650459 2.0
vertex 0.329504871165074 5.76148538650459 6.0
endloop
endfacet
facet normal -0.923879532511287 0.382683432365089 0.0
outer loop
vertex 0.329504871165074 5.76148538650459 2.0
vertex 0.659009742330237 6.55698051533944 6.0
vertex 0.659009742330237 6.55698051533944 2.0
endloop
endfacet
facet normal -0.271450954710777 -0.962452273718862 7.77626724939214e-19
outer loop
vertex 7.68198051533946 1.78400974233023 2.0
vertex 6.11503877709771 2.22595148057182 8.0
vertex 6.11503877709771 2.22595148057182 1.23373533611471e-15
endloop
endfacet
facet normal -0.271450954710777 -0.962452273718862 7.77626724939214e-19
outer loop
vertex 6.11503877709771 2.22595148057182 8.0
vertex 7.68198051533946 1.78400974233023 2.0
vertex 7.68198051533946 1.78400974233023 6.0
endloop
endfacet
facet normal 0.271450954710813 0.962452273718852 -6.55111386846594e-17
outer loop
vertex 0.659009742330237 6.55698051533944 2.0
vertex 2.22595148057181 6.11503877709784 8.0
vertex 2.22595148057181 6.11503877709784 1.32185928869433e-15
endloop
endfacet
facet normal 0.271450954710813 0.962452273718852 -6.55111386846594e-17
outer loop
vertex 2.22595148057181 6.11503877709784 8.0
vertex 0.659009742330237 6.55698051533944 2.0
vertex 0.659009742330237 6.55698051533944 6.0
endloop
endfacet
facet normal 0.718477228291084 -0.297603012214481 0.628667574754757
outer loop
vertex 8.01148538650463 2.57950487116508 6.0
vertex 6.11503877709771 2.22595148057182 8.0
vertex 7.68198051533946 1.78400974233023 6.0
endloop
endfacet
facet normal 0.718477228291084 -0.297603012214481 0.628667574754757
outer loop
vertex 6.11503877709771 2.22595148057182 8.0
vertex 8.01148538650463 2.57950487116508 6.0
vertex 6.71913104090065 3.68435921676905 8.0
endloop
endfacet
facet normal 1.0 0.0 0.0
outer loop
vertex 1.76049512883479 4.17049512883483 0.0
vertex 1.84261388747814 3.54674123013775 8.0
vertex 1.84261388747814 3.54674123013775 0.0
endloop
endfacet
facet normal 0.965925826289064 0.258819045102537 0.0
outer loop
vertex 1.84261388747814 3.54674123013775 8.0
vertex 1.76049512883479 4.17049512883483 0.0
vertex 1.76049512883479 4.17049512883483 8.0
endloop
endfacet
facet normal 0.965925826289064 0.258819045102537 0.0
outer loop
vertex 1.84261388747814 3.54674123013775 0.0
vertex 1.99846012542783 3.17049512883482 8.0
vertex 1.99846012542783 3.17049512883482 0.0
endloop
endfacet
facet normal 0.923879532511271 0.382683432365127 0.0
outer loop
vertex 1.99846012542783 3.17049512883482 8.0
vertex 1.84261388747814 3.54674123013775 0.0
vertex 1.84261388747814 3.54674123013775 8.0
endloop
endfacet
facet normal -0.965925826289063 -0.25881904510254 0.0
outer loop
vertex 6.49837637019148 4.79424902753191 8.0
vertex 6.58049512883482 4.17049512883483 0.0
vertex 6.58049512883482 4.17049512883483 8.0
endloop
endfacet
facet normal -1.0 0.0 0.0
outer loop
vertex 6.58049512883482 4.17049512883483 0.0
vertex 6.49837637019148 4.79424902753191 8.0
vertex 6.49837637019148 4.79424902753191 0.0
endloop
endfacet
facet normal 0.38268343236499 0.923879532511328 6.50595468439367e-17
outer loop
vertex 4.1704951288348 6.92049512883484 1.33287478276678e-15
vertex 4.65663104090058 6.71913104090064 8.0
vertex 4.65663104090058 6.71913104090064 1.32185928869433e-15
endloop
endfacet
facet normal 0.38268343236499 0.923879532511328 6.50595468439367e-17
outer loop
vertex 4.65663104090058 6.71913104090064 8.0
vertex 4.1704951288348 6.92049512883484 1.33287478276678e-15
vertex 4.17049512883481 6.92049512883484 8.0
endloop
endfacet
facet normal 0.718477228291084 -0.297603012214481 -0.628667574754758
outer loop
vertex 6.11503877709771 2.22595148057182 1.23373533611471e-15
vertex 8.01148538650463 2.57950487116508 2.0
vertex 7.68198051533946 1.78400974233023 2.0
endloop
endfacet
facet normal 0.718477228291084 -0.297603012214481 -0.628667574754758
outer loop
vertex 8.01148538650463 2.57950487116508 2.0
vertex 6.11503877709771 2.22595148057182 1.23373533611471e-15
vertex 6.71913104090065 3.68435921676905 1.23373533611471e-15
endloop
endfacet
facet normal -0.297603012214421 -0.718477228291135 -0.628667574754728
outer loop
vertex 2.5795048711651 0.329504871165124 2.0
vertex 2.22595148057181 2.22595148057182 1.23373533611471e-15
vertex 3.68435921676903 1.62185921676907 1.23373533611471e-15
endloop
endfacet
facet normal -0.297603012214421 -0.718477228291135 -0.628667574754728
outer loop
vertex 2.22595148057181 2.22595148057182 1.23373533611471e-15
vertex 2.5795048711651 0.329504871165124 2.0
vertex 1.78400974233025 0.659009742330249 2.0
endloop
endfacet
facet normal -0.297603012214424 0.718477228291133 -0.628667574754729
outer loop
vertex 2.5795048711651 8.01148538650454 2.0
vertex 4.1704951288348 6.92049512883484 1.33287478276678e-15
vertex 2.71208739263758 6.31640286503209 1.33287478276678e-15
endloop
endfacet
facet normal -0.297603012214424 0.718477228291133 -0.628667574754729
outer loop
vertex 4.1704951288348 6.92049512883484 1.33287478276678e-15
vertex 2.5795048711651 8.01148538650454 2.0
vertex 3.37499999999995 8.34099025766967 2.0
endloop
endfacet
facet normal -0.718477228291136 -0.297603012214409 -0.628667574754732
outer loop
vertex 0.0 3.37499999999997 2.0
vertex 2.02458739263755 2.71208739263759 1.23373533611471e-15
vertex 0.329504871165074 2.57950487116512 2.0
endloop
endfacet
facet normal -0.718477228291136 -0.297603012214409 -0.628667574754732
outer loop
vertex 2.02458739263755 2.71208739263759 1.23373533611471e-15
vertex 0.0 3.37499999999997 2.0
vertex 1.4204951288348 4.17049512883486 1.23373533611471e-15
endloop
endfacet
facet normal -0.718477228291123 0.297603012214432 -0.628667574754736
outer loop
vertex 0.329504871165074 5.76148538650459 2.0
vertex 2.22595148057181 6.11503877709784 1.32185928869433e-15
vertex 1.62185921676905 4.65663104090063 1.32185928869433e-15
endloop
endfacet
facet normal -0.718477228291123 0.297603012214432 -0.628667574754736
outer loop
vertex 2.22595148057181 6.11503877709784 1.32185928869433e-15
vertex 0.329504871165074 5.76148538650459 2.0
vertex 0.659009742330237 6.55698051533944 2.0
endloop
endfacet
facet normal 0.718477228291133 0.297603012214448 -0.628667574754717
outer loop
vertex 6.31640286503206 5.62890286503204 1.40998324127395e-15
vertex 8.34099025766961 4.96599025766965 2.0
vertex 6.9204951288349 4.17049512883482 1.40998324127395e-15
endloop
endfacet
facet normal 0.718477228291133 0.297603012214448 -0.628667574754717
outer loop
vertex 8.34099025766961 4.96599025766965 2.0
vertex 6.31640286503206 5.62890286503204 1.40998324127395e-15
vertex 8.01148538650454 5.7614853865045 2.0
endloop
endfacet
facet normal 0.297603012214448 0.718477228291115 -0.628667574754738
outer loop
vertex 5.76148538650451 8.01148538650459 2.0
vertex 6.1150387770978 6.11503877709782 1.32185928869433e-15
vertex 4.65663104090058 6.71913104090064 1.32185928869433e-15
endloop
endfacet
facet normal 0.297603012214448 0.718477228291115 -0.628667574754738
outer loop
vertex 6.1150387770978 6.11503877709782 1.32185928869433e-15
vertex 5.76148538650451 8.01148538650459 2.0
vertex 6.55698051533936 7.68198051533946 2.0
endloop
endfacet
facet normal 9.38397383799116e-18 2.36557544711262e-17 -1.0
outer loop
vertex 4.1704951288348 6.92049512883484 1.33287478276678e-15
vertex 3.17049512883476 6.34253013224179 0.0
vertex 2.71208739263758 6.31640286503209 1.33287478276678e-15
endloop
endfacet
facet normal 9.38397383799116e-18 2.36557544711262e-17 -1.0
outer loop
vertex 3.17049512883476 6.34253013224179 0.0
vertex 4.1704951288348 6.92049512883484 1.33287478276678e-15
vertex 3.54674123013774 6.49837637019149 0.0
endloop
endfacet
facet normal 9.38397383799116e-18 2.36557544711262e-17 -1.0
outer loop
vertex 3.54674123013774 6.49837637019149 0.0
vertex 4.1704951288348 6.92049512883484 1.33287478276678e-15
vertex 4.17049512883481 6.58049512883484 0.0
endloop
endfacet
facet normal 9.38397383799116e-18 2.36557544711262e-17 -1.0
outer loop
vertex 4.17049512883481 6.58049512883484 0.0
vertex 4.1704951288348 6.92049512883484 1.33287478276678e-15
vertex 4.65663104090058 6.71913104090064 1.32185928869433e-15
endloop
endfacet
facet normal 9.38397383799116e-18 2.36557544711262e-17 -1.0
outer loop
vertex 4.17049512883481 6.58049512883484 0.0
vertex 4.65663104090058 6.71913104090064 1.32185928869433e-15
vertex 4.79424902753187 6.49837637019149 0.0
endloop
endfacet
facet normal 9.38397383799116e-18 2.36557544711262e-17 -1.0
outer loop
vertex 4.79424902753187 6.49837637019149 0.0
vertex 4.65663104090058 6.71913104090064 1.32185928869433e-15
vertex 6.1150387770978 6.11503877709782 1.32185928869433e-15
endloop
endfacet
facet normal 9.38397383799116e-18 2.36557544711262e-17 -1.0
outer loop
vertex 4.79424902753187 6.49837637019149 0.0
vertex 6.1150387770978 6.11503877709782 1.32185928869433e-15
vertex 5.17049512883476 6.34253013224185 0.0
endloop
endfacet
facet normal 9.38397383799116e-18 2.36557544711262e-17 -1.0
outer loop
vertex 5.17049512883476 6.34253013224185 0.0
vertex 6.1150387770978 6.11503877709782 1.32185928869433e-15
vertex 5.17049512883476 5.17049512883483 0.0
endloop
endfacet
facet normal 9.38397383799116e-18 2.36557544711262e-17 -1.0
outer loop
vertex 5.17049512883476 5.17049512883483 0.0
vertex 6.1150387770978 6.11503877709782 1.32185928869433e-15
vertex 6.34253013224178 5.17049512883483 0.0
endloop
endfacet
facet normal 9.38397383799116e-18 2.36557544711262e-17 -1.0
outer loop
vertex 6.34253013224178 5.17049512883483 0.0
vertex 6.1150387770978 6.11503877709782 1.32185928869433e-15
vertex 6.31640286503206 5.62890286503204 1.40998324127395e-15
endloop
endfacet
facet normal 9.38397383799116e-18 2.36557544711262e-17 -1.0
outer loop
vertex 6.34253013224178 5.17049512883483 0.0
vertex 6.31640286503206 5.62890286503204 1.40998324127395e-15
vertex 6.9204951288349 4.17049512883482 1.40998324127395e-15
endloop
endfacet
facet normal 9.38397383799116e-18 2.36557544711262e-17 -1.0
outer loop
vertex 6.34253013224178 5.17049512883483 0.0
vertex 6.9204951288349 4.17049512883482 1.40998324127395e-15
vertex 6.49837637019148 4.79424902753191 0.0
endloop
endfacet
facet normal 9.38397383799116e-18 2.36557544711262e-17 -1.0
outer loop
vertex 6.49837637019148 4.79424902753191 0.0
vertex 6.9204951288349 4.17049512883482 1.40998324127395e-15
vertex 6.58049512883482 4.17049512883483 0.0
endloop
endfacet
facet normal 9.38397383799116e-18 2.36557544711262e-17 -1.0
outer loop
vertex 6.58049512883482 4.17049512883483 0.0
vertex 6.9204951288349 4.17049512883482 1.40998324127395e-15
vertex 6.71913104090065 3.68435921676905 1.23373533611471e-15
endloop
endfacet
facet normal 9.38397383799116e-18 2.36557544711262e-17 -1.0
outer loop
vertex 6.34253013224178 3.17049512883482 0.0
vertex 5.17049512883476 1.99846012542783 0.0
vertex 5.17049512883476 3.17049512883482 0.0
endloop
endfacet
facet normal 9.38397383799116e-18 2.36557544711262e-17 -1.0
outer loop
vertex 5.17049512883476 1.99846012542783 0.0
vertex 6.34253013224178 3.17049512883482 0.0
vertex 5.62890286503194 2.02458739263758 1.23373533611471e-15
endloop
endfacet
facet normal 9.38397383799116e-18 2.36557544711262e-17 -1.0
outer loop
vertex 5.62890286503194 2.02458739263758 1.23373533611471e-15
vertex 6.34253013224178 3.17049512883482 0.0
vertex 6.11503877709771 2.22595148057182 1.23373533611471e-15
endloop
endfacet
facet normal 9.38397383799116e-18 2.36557544711262e-17 -1.0
outer loop
vertex 6.11503877709771 2.22595148057182 1.23373533611471e-15
vertex 6.34253013224178 3.17049512883482 0.0
vertex 6.71913104090065 3.68435921676905 1.23373533611471e-15
endloop
endfacet
facet normal 9.38397383799116e-18 2.36557544711262e-17 -1.0
outer loop
vertex 6.71913104090065 3.68435921676905 1.23373533611471e-15
vertex 6.34253013224178 3.17049512883482 0.0
vertex 6.49837637019148 3.54674123013775 0.0
endloop
endfacet
facet normal 9.38397383799116e-18 2.36557544711262e-17 -1.0
outer loop
vertex 6.71913104090065 3.68435921676905 1.23373533611471e-15
vertex 6.49837637019148 3.54674123013775 0.0
vertex 6.58049512883482 4.17049512883483 0.0
endloop
endfacet
facet normal 9.38397383799116e-18 2.36557544711262e-17 -1.0
outer loop
vertex 1.4204951288348 4.17049512883486 1.23373533611471e-15
vertex 1.84261388747814 3.54674123013775 0.0
vertex 2.02458739263755 2.71208739263759 1.23373533611471e-15
endloop
endfacet
facet normal 9.38397383799116e-18 2.36557544711262e-17 -1.0
outer loop
vertex 1.84261388747814 3.54674123013775 0.0
vertex 1.4204951288348 4.17049512883486 1.23373533611471e-15
vertex 1.62185921676905 4.65663104090063 1.32185928869433e-15
endloop
endfacet
facet normal 9.38397383799116e-18 2.36557544711262e-17 -1.0
outer loop
vertex 1.84261388747814 3.54674123013775 0.0
vertex 1.62185921676905 4.65663104090063 1.32185928869433e-15
vertex 1.76049512883479 4.17049512883483 0.0
endloop
endfacet
facet normal 9.38397383799116e-18 2.36557544711262e-17 -1.0
outer loop
vertex 2.02458739263755 2.71208739263759 1.23373533611471e-15
vertex 1.84261388747814 3.54674123013775 0.0
vertex 1.99846012542783 3.17049512883482 0.0
endloop
endfacet
facet normal 9.38397383799116e-18 2.36557544711262e-17 -1.0
outer loop
vertex 2.02458739263755 2.71208739263759 1.23373533611471e-15
vertex 1.99846012542783 3.17049512883482 0.0
vertex 3.17049512883476 3.17049512883482 0.0
endloop
endfacet
facet normal 9.38397383799116e-18 2.36557544711262e-17 -1.0
outer loop
vertex 2.02458739263755 2.71208739263759 1.23373533611471e-15
vertex 3.17049512883476 3.17049512883482 0.0
vertex 2.22595148057181 2.22595148057182 1.23373533611471e-15
endloop
endfacet
facet normal 9.38397383799116e-18 2.36557544711262e-17 -1.0
outer loop
vertex 2.22595148057181 2.22595148057182 1.23373533611471e-15
vertex 3.17049512883476 3.17049512883482 0.0
vertex 3.17049512883476 1.99846012542784 0.0
endloop
endfacet
facet normal 9.38397383799116e-18 2.36557544711262e-17 -1.0
outer loop
vertex 2.22595148057181 2.22595148057182 1.23373533611471e-15
vertex 3.17049512883476 1.99846012542784 0.0
vertex 3.68435921676903 1.62185921676907 1.23373533611471e-15
endloop
endfacet
facet normal 9.38397383799116e-18 2.36557544711262e-17 -1.0
outer loop
vertex 3.68435921676903 1.62185921676907 1.23373533611471e-15
vertex 3.17049512883476 1.99846012542784 0.0
vertex 3.54674123013774 1.84261388747816 0.0
endloop
endfacet
facet normal 9.38397383799116e-18 2.36557544711262e-17 -1.0
outer loop
vertex 3.68435921676903 1.62185921676907 1.23373533611471e-15
vertex 3.54674123013774 1.84261388747816 0.0
vertex 4.17049512883481 1.76049512883482 0.0
endloop
endfacet
facet normal 9.38397383799116e-18 2.36557544711262e-17 -1.0
outer loop
vertex 3.68435921676903 1.62185921676907 1.23373533611471e-15
vertex 4.17049512883481 1.76049512883482 0.0
vertex 4.17049512883481 1.42049512883481 1.23373533611471e-15
endloop
endfacet
facet normal 9.38397383799116e-18 2.36557544711262e-17 -1.0
outer loop
vertex 4.17049512883481 1.42049512883481 1.23373533611471e-15
vertex 4.17049512883481 1.76049512883482 0.0
vertex 4.79424902753187 1.84261388747816 0.0
endloop
endfacet
facet normal 9.38397383799116e-18 2.36557544711262e-17 -1.0
outer loop
vertex 4.17049512883481 1.42049512883481 1.23373533611471e-15
vertex 4.79424902753187 1.84261388747816 0.0
vertex 5.62890286503194 2.02458739263758 1.23373533611471e-15
endloop
endfacet
facet normal 9.38397383799116e-18 2.36557544711262e-17 -1.0
outer loop
vertex 5.62890286503194 2.02458739263758 1.23373533611471e-15
vertex 4.79424902753187 1.84261388747816 0.0
vertex 5.17049512883476 1.99846012542783 0.0
endloop
endfacet
facet normal 9.38397383799116e-18 2.36557544711262e-17 -1.0
outer loop
vertex 1.62185921676905 4.65663104090063 1.32185928869433e-15
vertex 1.84261388747814 4.79424902753191 0.0
vertex 1.76049512883479 4.17049512883483 0.0
endloop
endfacet
facet normal 9.38397383799116e-18 2.36557544711262e-17 -1.0
outer loop
vertex 1.84261388747814 4.79424902753191 0.0
vertex 1.62185921676905 4.65663104090063 1.32185928869433e-15
vertex 2.22595148057181 6.11503877709784 1.32185928869433e-15
endloop
endfacet
facet normal 9.38397383799116e-18 2.36557544711262e-17 -1.0
outer loop
vertex 1.84261388747814 4.79424902753191 0.0
vertex 2.22595148057181 6.11503877709784 1.32185928869433e-15
vertex 1.99846012542783 5.17049512883483 0.0
endloop
endfacet
facet normal 9.38397383799116e-18 2.36557544711262e-17 -1.0
outer loop
vertex 1.99846012542783 5.17049512883483 0.0
vertex 2.22595148057181 6.11503877709784 1.32185928869433e-15
vertex 3.17049512883476 5.17049512883483 0.0
endloop
endfacet
facet normal 9.38397383799116e-18 2.36557544711262e-17 -1.0
outer loop
vertex 3.17049512883476 5.17049512883483 0.0
vertex 2.22595148057181 6.11503877709784 1.32185928869433e-15
vertex 2.71208739263758 6.31640286503209 1.33287478276678e-15
endloop
endfacet
facet normal 9.38397383799116e-18 2.36557544711262e-17 -1.0
outer loop
vertex 3.17049512883476 5.17049512883483 0.0
vertex 2.71208739263758 6.31640286503209 1.33287478276678e-15
vertex 3.17049512883476 6.34253013224179 0.0
endloop
endfacet
facet normal 0.718477228291134 0.297603012214448 0.628667574754716
outer loop
vertex 8.34099025766961 4.96599025766965 6.0
vertex 6.31640286503206 5.62890286503204 8.0
vertex 6.9204951288349 4.17049512883482 8.0
endloop
endfacet
facet normal 0.718477228291134 0.297603012214448 0.628667574754716
outer loop
vertex 6.31640286503206 5.62890286503204 8.0
vertex 8.34099025766961 4.96599025766965 6.0
vertex 8.01148538650454 5.7614853865045 6.0
endloop
endfacet
facet normal 0.297603012214448 0.718477228291116 0.628667574754737
outer loop
vertex 4.65663104090058 6.71913104090064 8.0
vertex 6.55698051533936 7.68198051533946 6.0
vertex 5.76148538650451 8.01148538650459 6.0
endloop
endfacet
facet normal 0.297603012214448 0.718477228291116 0.628667574754737
outer loop
vertex 6.55698051533936 7.68198051533946 6.0
vertex 4.65663104090058 6.71913104090064 8.0
vertex 6.1150387770978 6.11503877709782 8.0
endloop
endfacet
facet normal -0.297603012214424 0.718477228291133 0.628667574754729
outer loop
vertex 2.71208739263758 6.31640286503209 8.0
vertex 3.37499999999995 8.34099025766967 6.0
vertex 2.5795048711651 8.01148538650454 6.0
endloop
endfacet
facet normal -0.297603012214424 0.718477228291133 0.628667574754729
outer loop
vertex 3.37499999999995 8.34099025766967 6.0
vertex 2.71208739263758 6.31640286503209 8.0
vertex 4.17049512883481 6.92049512883484 8.0
endloop
endfacet
facet normal -0.297603012214422 -0.718477228291135 0.628667574754727
outer loop
vertex 3.68435921676903 1.62185921676907 8.0
vertex 1.78400974233025 0.659009742330249 6.0
vertex 2.5795048711651 0.329504871165124 6.0
endloop
endfacet
facet normal -0.297603012214422 -0.718477228291135 0.628667574754727
outer loop
vertex 1.78400974233025 0.659009742330249 6.0
vertex 3.68435921676903 1.62185921676907 8.0
vertex 2.22595148057181 2.22595148057182 8.0
endloop
endfacet
facet normal 0.297603012214442 -0.71847722829113 0.628667574754723
outer loop
vertex 5.62890286503194 2.02458739263758 8.0
vertex 4.96599025766957 0.0 6.0
vertex 5.76148538650442 0.329504871165124 6.0
endloop
endfacet
facet normal 0.297603012214442 -0.71847722829113 0.628667574754723
outer loop
vertex 4.96599025766957 0.0 6.0
vertex 5.62890286503194 2.02458739263758 8.0
vertex 4.17049512883481 1.42049512883481 8.0
endloop
endfacet
facet normal -0.718477228291137 -0.297603012214409 0.628667574754731
outer loop
vertex 2.02458739263755 2.71208739263759 8.0
vertex 0.0 3.37499999999997 6.0
vertex 0.329504871165074 2.57950487116512 6.0
endloop
endfacet
facet normal -0.718477228291137 -0.297603012214409 0.628667574754731
outer loop
vertex 0.0 3.37499999999997 6.0
vertex 2.02458739263755 2.71208739263759 8.0
vertex 1.4204951288348 4.17049512883486 8.0
endloop
endfacet
facet normal -0.718477228291124 0.297603012214432 0.628667574754735
outer loop
vertex 2.22595148057181 6.11503877709784 8.0
vertex 0.329504871165074 5.76148538650459 6.0
vertex 1.62185921676905 4.65663104090063 8.0
endloop
endfacet
facet normal -0.718477228291124 0.297603012214432 0.628667574754735
outer loop
vertex 0.329504871165074 5.76148538650459 6.0
vertex 2.22595148057181 6.11503877709784 8.0
vertex 0.659009742330237 6.55698051533944 6.0
endloop
endfacet
facet normal 7.19279693916957e-17 -2.41463819104536e-16 1.0
outer loop
vertex 3.68435921676903 1.62185921676907 8.0
vertex 3.17049512883476 1.99846012542784 8.0
vertex 2.22595148057181 2.22595148057182 8.0
endloop
endfacet
facet normal 7.19279693916957e-17 -2.41463819104536e-16 1.0
outer loop
vertex 3.17049512883476 1.99846012542784 8.0
vertex 3.68435921676903 1.62185921676907 8.0
vertex 3.54674123013774 1.84261388747816 8.0
endloop
endfacet
facet normal 7.19279693916957e-17 -2.41463819104536e-16 1.0
outer loop
vertex 3.54674123013774 1.84261388747816 8.0
vertex 3.68435921676903 1.62185921676907 8.0
vertex 4.17049512883481 1.76049512883482 8.0
endloop
endfacet
facet normal 7.19279693916957e-17 -2.41463819104536e-16 1.0
outer loop
vertex 4.17049512883481 1.76049512883482 8.0
vertex 3.68435921676903 1.62185921676907 8.0
vertex 4.17049512883481 1.42049512883481 8.0
endloop
endfacet
facet normal 7.19279693916957e-17 -2.41463819104536e-16 1.0
outer loop
vertex 4.17049512883481 1.76049512883482 8.0
vertex 4.17049512883481 1.42049512883481 8.0
vertex 4.79424902753187 1.84261388747816 8.0
endloop
endfacet
facet normal 7.19279693916957e-17 -2.41463819104536e-16 1.0
outer loop
vertex 4.79424902753187 1.84261388747816 8.0
vertex 4.17049512883481 1.42049512883481 8.0
vertex 5.62890286503194 2.02458739263758 8.0
endloop
endfacet
facet normal 7.19279693916957e-17 -2.41463819104536e-16 1.0
outer loop
vertex 4.79424902753187 1.84261388747816 8.0
vertex 5.62890286503194 2.02458739263758 8.0
vertex 5.17049512883476 1.99846012542783 8.0
endloop
endfacet
facet normal 7.19279693916957e-17 -2.41463819104536e-16 1.0
outer loop
vertex 5.17049512883476 1.99846012542783 8.0
vertex 5.62890286503194 2.02458739263758 8.0
vertex 5.17049512883476 3.17049512883482 8.0
endloop
endfacet
facet normal 7.19279693916957e-17 -2.41463819104536e-16 1.0
outer loop
vertex 5.17049512883476 3.17049512883482 8.0
vertex 5.62890286503194 2.02458739263758 8.0
vertex 6.34253013224178 3.17049512883482 8.0
endloop
endfacet
facet normal 7.19279693916957e-17 -2.41463819104536e-16 1.0
outer loop
vertex 6.34253013224178 3.17049512883482 8.0
vertex 5.62890286503194 2.02458739263758 8.0
vertex 6.11503877709771 2.22595148057182 8.0
endloop
endfacet
facet normal 7.19279693916957e-17 -2.41463819104536e-16 1.0
outer loop
vertex 6.34253013224178 3.17049512883482 8.0
vertex 6.11503877709771 2.22595148057182 8.0
vertex 6.71913104090065 3.68435921676905 8.0
endloop
endfacet
facet normal 7.19279693916957e-17 -2.41463819104536e-16 1.0
outer loop
vertex 6.34253013224178 3.17049512883482 8.0
vertex 6.71913104090065 3.68435921676905 8.0
vertex 6.49837637019148 3.54674123013775 8.0
endloop
endfacet
facet normal 7.19279693916957e-17 -2.41463819104536e-16 1.0
outer loop
vertex 6.49837637019148 3.54674123013775 8.0
vertex 6.71913104090065 3.68435921676905 8.0
vertex 6.58049512883482 4.17049512883483 8.0
endloop
endfacet
facet normal 7.19279693916957e-17 -2.41463819104536e-16 1.0
outer loop
vertex 6.34253013224178 5.17049512883483 8.0
vertex 5.17049512883476 6.34253013224185 8.0
vertex 5.17049512883476 5.17049512883483 8.0
endloop
endfacet
facet normal 7.19279693916957e-17 -2.41463819104536e-16 1.0
outer loop
vertex 5.17049512883476 6.34253013224185 8.0
vertex 6.34253013224178 5.17049512883483 8.0
vertex 6.1150387770978 6.11503877709782 8.0
endloop
endfacet
facet normal 7.19279693916957e-17 -2.41463819104536e-16 1.0
outer loop
vertex 6.1150387770978 6.11503877709782 8.0
vertex 6.34253013224178 5.17049512883483 8.0
vertex 6.31640286503206 5.62890286503204 8.0
endloop
endfacet
facet normal 7.19279693916957e-17 -2.41463819104536e-16 1.0
outer loop
vertex 6.31640286503206 5.62890286503204 8.0
vertex 6.34253013224178 5.17049512883483 8.0
vertex 6.9204951288349 4.17049512883482 8.0
endloop
endfacet
facet normal 7.19279693916957e-17 -2.41463819104536e-16 1.0
outer loop
vertex 6.9204951288349 4.17049512883482 8.0
vertex 6.34253013224178 5.17049512883483 8.0
vertex 6.49837637019148 4.79424902753191 8.0
endloop
endfacet
facet normal 7.19279693916957e-17 -2.41463819104536e-16 1.0
outer loop
vertex 6.9204951288349 4.17049512883482 8.0
vertex 6.49837637019148 4.79424902753191 8.0
vertex 6.58049512883482 4.17049512883483 8.0
endloop
endfacet
facet normal 7.19279693916957e-17 -2.41463819104536e-16 1.0
outer loop
vertex 6.9204951288349 4.17049512883482 8.0
vertex 6.58049512883482 4.17049512883483 8.0
vertex 6.71913104090065 3.68435921676905 8.0
endloop
endfacet
facet normal 7.19279693916957e-17 -2.41463819104536e-16 1.0
outer loop
vertex 1.62185921676905 4.65663104090063 8.0
vertex 1.84261388747814 4.79424902753191 8.0
vertex 2.22595148057181 6.11503877709784 8.0
endloop
endfacet
facet normal 7.19279693916957e-17 -2.41463819104536e-16 1.0
outer loop
vertex 1.84261388747814 4.79424902753191 8.0
vertex 1.62185921676905 4.65663104090063 8.0
vertex 1.76049512883479 4.17049512883483 8.0
endloop
endfacet
facet normal 7.19279693916957e-17 -2.41463819104536e-16 1.0
outer loop
vertex 2.22595148057181 6.11503877709784 8.0
vertex 1.84261388747814 4.79424902753191 8.0
vertex 1.99846012542783 5.17049512883483 8.0
endloop
endfacet
facet normal 7.19279693916957e-17 -2.41463819104536e-16 1.0
outer loop
vertex 2.22595148057181 6.11503877709784 8.0
vertex 1.99846012542783 5.17049512883483 8.0
vertex 3.17049512883476 5.17049512883483 8.0
endloop
endfacet
facet normal 7.19279693916957e-17 -2.41463819104536e-16 1.0
outer loop
vertex 2.22595148057181 6.11503877709784 8.0
vertex 3.17049512883476 5.17049512883483 8.0
vertex 2.71208739263758 6.31640286503209 8.0
endloop
endfacet
facet normal 7.19279693916957e-17 -2.41463819104536e-16 1.0
outer loop
vertex 2.71208739263758 6.31640286503209 8.0
vertex 3.17049512883476 5.17049512883483 8.0
vertex 3.17049512883476 6.34253013224179 8.0
endloop
endfacet
facet normal 7.19279693916957e-17 -2.41463819104536e-16 1.0
outer loop
vertex 2.71208739263758 6.31640286503209 8.0
vertex 3.17049512883476 6.34253013224179 8.0
vertex 4.17049512883481 6.92049512883484 8.0
endloop
endfacet
facet normal 7.19279693916957e-17 -2.41463819104536e-16 1.0
outer loop
vertex 4.17049512883481 6.92049512883484 8.0
vertex 3.17049512883476 6.34253013224179 8.0
vertex 3.54674123013774 6.49837637019149 8.0
endloop
endfacet
facet normal 7.19279693916957e-17 -2.41463819104536e-16 1.0
outer loop
vertex 4.17049512883481 6.92049512883484 8.0
vertex 3.54674123013774 6.49837637019149 8.0
vertex 4.17049512883481 6.58049512883484 8.0
endloop
endfacet
facet normal 7.19279693916957e-17 -2.41463819104536e-16 1.0
outer loop
vertex 4.17049512883481 6.92049512883484 8.0
vertex 4.17049512883481 6.58049512883484 8.0
vertex 4.79424902753187 6.49837637019149 8.0
endloop
endfacet
facet normal 7.19279693916957e-17 -2.41463819104536e-16 1.0
outer loop
vertex 4.17049512883481 6.92049512883484 8.0
vertex 4.79424902753187 6.49837637019149 8.0
vertex 4.65663104090058 6.71913104090064 8.0
endloop
endfacet
facet normal 7.19279693916957e-17 -2.41463819104536e-16 1.0
outer loop
vertex 4.65663104090058 6.71913104090064 8.0
vertex 4.79424902753187 6.49837637019149 8.0
vertex 6.1150387770978 6.11503877709782 8.0
endloop
endfacet
facet normal 7.19279693916957e-17 -2.41463819104536e-16 1.0
outer loop
vertex 6.1150387770978 6.11503877709782 8.0
vertex 4.79424902753187 6.49837637019149 8.0
vertex 5.17049512883476 6.34253013224185 8.0
endloop
endfacet
facet normal 7.19279693916957e-17 -2.41463819104536e-16 1.0
outer loop
vertex 1.4204951288348 4.17049512883486 8.0
vertex 1.84261388747814 3.54674123013775 8.0
vertex 1.62185921676905 4.65663104090063 8.0
endloop
endfacet
facet normal 7.19279693916957e-17 -2.41463819104536e-16 1.0
outer loop
vertex 1.84261388747814 3.54674123013775 8.0
vertex 1.4204951288348 4.17049512883486 8.0
vertex 2.02458739263755 2.71208739263759 8.0
endloop
endfacet
facet normal 7.19279693916957e-17 -2.41463819104536e-16 1.0
outer loop
vertex 1.62185921676905 4.65663104090063 8.0
vertex 1.84261388747814 3.54674123013775 8.0
vertex 1.76049512883479 4.17049512883483 8.0
endloop
endfacet
facet normal 7.19279693916957e-17 -2.41463819104536e-16 1.0
outer loop
vertex 1.84261388747814 3.54674123013775 8.0
vertex 2.02458739263755 2.71208739263759 8.0
vertex 1.99846012542783 3.17049512883482 8.0
endloop
endfacet
facet normal 7.19279693916957e-17 -2.41463819104536e-16 1.0
outer loop
vertex 1.99846012542783 3.17049512883482 8.0
vertex 2.02458739263755 2.71208739263759 8.0
vertex 3.17049512883476 3.17049512883482 8.0
endloop
endfacet
facet normal 7.19279693916957e-17 -2.41463819104536e-16 1.0
outer loop
vertex 3.17049512883476 3.17049512883482 8.0
vertex 2.02458739263755 2.71208739263759 8.0
vertex 2.22595148057181 2.22595148057182 8.0
endloop
endfacet
facet normal 7.19279693916957e-17 -2.41463819104536e-16 1.0
outer loop
vertex 3.17049512883476 3.17049512883482 8.0
vertex 2.22595148057181 2.22595148057182 8.0
vertex 3.17049512883476 1.99846012542784 8.0
endloop
endfacet
endsolid bbStock8TGearBVL
